<svg xmlns="http://www.w3.org/2000/svg" xmlns:xlink="http://www.w3.org/1999/xlink" width="1390" height="394" viewBox="0 0 1390 394">
  <defs>
    <clipPath id="clip-path">
      <rect width="1390" height="394" fill="none"/>
    </clipPath>
    <clipPath id="clip-path-2">
      <rect id="Rectangle_1" data-name="Rectangle 1" width="1390" height="394" transform="translate(-0.368 0.422)"/>
    </clipPath>
  </defs>
  <g id="Repeat_Grid_1" data-name="Repeat Grid 1" clip-path="url(#clip-path)">
    <g transform="translate(-237 -343)">
      <g id="Lifeline_1" data-name="Lifeline 1" transform="translate(237.368 342.578)" clip-path="url(#clip-path-2)">
        <path id="Path_5" data-name="Path 5" d="M27.779,182.028a24.51,24.51,0,0,1-18.134-6.742A24.509,24.509,0,0,1,2.9,157.146V-.843q3.3-.6,9.44-1.462a83.772,83.772,0,0,1,12.145-.9,32.94,32.94,0,0,1,19.486,4.5,21.124,21.124,0,0,1,6,17.688V144.013h71.949a41.751,41.751,0,0,1,3.451,7.794,32.092,32.092,0,0,1,1.652,10.493,21.936,21.936,0,0,1-4.343,14.843,14.953,14.953,0,0,1-11.845,4.95Zm165.183-.9a59.023,59.023,0,0,1-8.394,1.652,87.628,87.628,0,0,1-11.992.731,33.072,33.072,0,0,1-19.333-4.351,20.093,20.093,0,0,1-5.85-16.942V39.029a72.021,72.021,0,0,1,8.394-1.8,73.253,73.253,0,0,1,11.992-.9,32.173,32.173,0,0,1,19.333,4.5,20.568,20.568,0,0,1,5.85,17.088ZM144.7-4.141a23.947,23.947,0,0,1,7.049-17.388,24.648,24.648,0,0,1,18.433-7.195,24.648,24.648,0,0,1,18.433,7.195,23.946,23.946,0,0,1,7.049,17.388,24.3,24.3,0,0,1-7.049,17.688,24.649,24.649,0,0,1-18.433,7.195,24.649,24.649,0,0,1-18.433-7.195A24.3,24.3,0,0,1,144.7-4.141ZM266.417,47.723h50.964a74.181,74.181,0,0,1,3.151,7.495,28.518,28.518,0,0,1,1.652,9.893,18.55,18.55,0,0,1-4.351,13.79A15.508,15.508,0,0,1,306.6,83.1H268.538v98.031a59.017,59.017,0,0,1-8.394,1.652,87.626,87.626,0,0,1-11.992.731,33.839,33.839,0,0,1-19.486-4.351,19.815,19.815,0,0,1-6-16.942V34.832a60.689,60.689,0,0,1,4.95-25.482A46.014,46.014,0,0,1,241.265-8.2,58.971,58.971,0,0,1,261.65-18.238a92.43,92.43,0,0,1,25.182-3.3,69.463,69.463,0,0,1,31.595,5.542A19.011,19.011,0,0,1,328.773,2.14a21.555,21.555,0,0,1-2.252,10.047,20.561,20.561,0,0,1-5.243,6.742,102.7,102.7,0,0,0-12.138-3,79.926,79.926,0,0,0-14.543-1.2,36.991,36.991,0,0,0-20.985,4.95,18.733,18.733,0,0,0-7.195,16.635Zm108.516,80.643a29.175,29.175,0,0,0,14.69,17.834,53.618,53.618,0,0,0,24.283,5.25A79.371,79.371,0,0,0,437.589,148a81.534,81.534,0,0,0,17.987-7.648,25.408,25.408,0,0,1,7.495,7.795,19.413,19.413,0,0,1,3,10.493,18.28,18.28,0,0,1-4.2,11.992,32.546,32.546,0,0,1-11.538,8.548,66.151,66.151,0,0,1-17.388,5.118,136.4,136.4,0,0,1-22.038,1.645,103.719,103.719,0,0,1-32.692-4.965,71.24,71.24,0,0,1-25.782-14.69,67.38,67.38,0,0,1-16.92-24.429,88.892,88.892,0,0,1-6.142-34.476A82.763,82.763,0,0,1,335.515,74.1,66.809,66.809,0,0,1,352,50.706a65.31,65.31,0,0,1,23.683-13.637,87.991,87.991,0,0,1,27.427-4.343,81.265,81.265,0,0,1,28.026,4.643,64.719,64.719,0,0,1,21.885,13.044A58.839,58.839,0,0,1,467.261,70.5a63.073,63.073,0,0,1,5.118,25.482,18.85,18.85,0,0,1-5.118,14.39,26.652,26.652,0,0,1-14.39,6.3ZM403.45,66.61a30.257,30.257,0,0,0-21.431,7.948A34.768,34.768,0,0,0,371.972,97.5l57.26-9.293a23.842,23.842,0,0,0-25.818-21.57ZM519.731,183.527a33.072,33.072,0,0,1-19.333-4.351,20.093,20.093,0,0,1-5.85-16.942V-13.734a71.2,71.2,0,0,1,8.548-1.8,76.042,76.042,0,0,1,12.138-.9,32.3,32.3,0,0,1,19.187,4.5,20.276,20.276,0,0,1,6,17.088V181.129a71.836,71.836,0,0,1-8.694,1.652,87.626,87.626,0,0,1-11.992.746Zm97.131-2.4a59.024,59.024,0,0,1-8.394,1.652,87.626,87.626,0,0,1-11.992.731,33.072,33.072,0,0,1-19.34-4.351,20.093,20.093,0,0,1-5.85-16.942V39.029a72.018,72.018,0,0,1,8.394-1.8,73.252,73.252,0,0,1,11.992-.9,32.173,32.173,0,0,1,19.34,4.5,20.568,20.568,0,0,1,5.85,17.088ZM568.6-4.141a23.947,23.947,0,0,1,7.049-17.388,24.648,24.648,0,0,1,18.433-7.195,24.648,24.648,0,0,1,18.433,7.195,23.947,23.947,0,0,1,7.049,17.388,24.3,24.3,0,0,1-7.049,17.688,24.648,24.648,0,0,1-18.433,7.195,24.649,24.649,0,0,1-18.448-7.195A24.3,24.3,0,0,1,568.6-4.141Zm170.58,93.534a18.865,18.865,0,0,0-6.3-15.589,25.884,25.884,0,0,0-16.817-5.118,45.765,45.765,0,0,0-13.161,1.8,61.268,61.268,0,0,0-11.092,4.5V181.129a59.019,59.019,0,0,1-8.4,1.652,87.625,87.625,0,0,1-11.992.731,33.84,33.84,0,0,1-19.486-4.351,19.815,19.815,0,0,1-6-16.942V69.607a21.811,21.811,0,0,1,3.3-12.591,36.414,36.414,0,0,1,9.293-8.994A77.828,77.828,0,0,1,683.262,36.93a124.924,124.924,0,0,1,33.43-4.2q32.677,0,50.518,14.39a49.721,49.721,0,0,1,17.834,41.071v92.934a71.839,71.839,0,0,1-8.694,1.652,87.627,87.627,0,0,1-11.992.731,33.072,33.072,0,0,1-19.34-4.351,20.093,20.093,0,0,1-5.85-16.942ZM851.9,128.366a29.174,29.174,0,0,0,14.69,17.834,53.618,53.618,0,0,0,24.283,5.25A79.371,79.371,0,0,0,914.56,148a81.535,81.535,0,0,0,17.987-7.648,25.409,25.409,0,0,1,7.495,7.794,19.413,19.413,0,0,1,3,10.493,18.28,18.28,0,0,1-4.2,11.992,32.553,32.553,0,0,1-11.545,8.548,66.151,66.151,0,0,1-17.388,5.118,136.4,136.4,0,0,1-22.053,1.631,103.72,103.72,0,0,1-32.677-4.95,71.239,71.239,0,0,1-25.782-14.69,67.38,67.38,0,0,1-16.942-24.436,88.893,88.893,0,0,1-6.142-34.476A82.763,82.763,0,0,1,812.456,74.1a66.807,66.807,0,0,1,16.488-23.4,65.31,65.31,0,0,1,23.683-13.637,87.992,87.992,0,0,1,27.434-4.343,81.265,81.265,0,0,1,28.026,4.643,64.717,64.717,0,0,1,21.885,13.044A58.837,58.837,0,0,1,944.21,70.492a63.074,63.074,0,0,1,5.118,25.482,18.85,18.85,0,0,1-5.118,14.39,26.652,26.652,0,0,1-14.39,6.3ZM880.421,66.61a30.257,30.257,0,0,0-21.439,7.948A34.769,34.769,0,0,0,848.943,97.5L906.2,88.2a23.843,23.843,0,0,0-25.826-21.57Z" transform="translate(427.556 118.36)"/>
        <path id="Path_4" data-name="Path 4" d="M-13,180.8A182.8,182.8,0,1,1,169.8,363.6,182.8,182.8,0,0,1-13,180.8ZM953.532,98.173a24.378,24.378,0,0,1,26.177-25.928,23.939,23.939,0,0,1,25.453,25.928,24.583,24.583,0,0,1-25.438,24.51,25.014,25.014,0,0,1-26.191-24.51Z" transform="translate(42.248 16.624)" fill="#3d498d"/>
        <path id="Path_6" data-name="Path 6" d="M133.24,283.991A143.511,143.511,0,0,1,29.827,240.119,152.859,152.859,0,0,1,10.648,52.342,147.591,147.591,0,0,1,71.886-2C39.369,19.519,19.174,65.138,19.174,117.082c0,67.657,60.345,131.614,124.171,131.614,46.416,0,103.442-18.623,126.218-60.243a149.163,149.163,0,0,1-52.858,68.732,142.89,142.89,0,0,1-83.465,26.805ZM106.6,226.132a16.4,16.4,0,0,1-16.086-11.472,16.137,16.137,0,0,1,9.937-20.7c7.678-2.194,12.2-3.378,15.516-4.248a110.48,110.48,0,0,0,13.893-4.387,9.557,9.557,0,0,0,5.85-5.257,15.311,15.311,0,0,0-.636-10.624,249.8,249.8,0,0,0-36.56-32.728c-3.093-1.938-5.9-3.656-8.548-5.316-10.105-6.171-18.046-11.107-31.061-20.232C42.2,99.467,40.174,95.87,42.272,90.349a9.374,9.374,0,0,1,9.074-7.378,34.7,34.7,0,0,1,16,5.85c7.48,4.387,13.812,8.358,19.406,11.853,8.643,5.4,16.086,10.076,24.941,14.624a33.1,33.1,0,0,0,12.576,4.672,1.974,1.974,0,0,0,1.462-.453.731.731,0,0,0,.2-.526.79.79,0,0,0,.592-.519c.373-.972-.154-3.9-7.9-12.657-4.782-5.447-9.286-9.959-14.061-14.734C98.2,84.712,91.62,78.124,83.563,68.582c-13.79-16.335-21.387-25.336-14.7-32.494a8.277,8.277,0,0,1,6.1-3.173c5.118,0,11.363,5.5,23.508,17.834,7.034,7.144,12.269,12.9,16.883,17.973A263.817,263.817,0,0,0,135.09,88.836c9.447,8.511,14.032,11.7,16.905,11.7a3.758,3.758,0,0,0,2.837-1.36c1.6-1.667-.475-7.378-6.164-16.971a9.192,9.192,0,0,1-.475-.834c-5.045-7.509-14.324-24.385-14.419-24.553s-6.866-11.641-12.518-22.528c-5.711-10.968-6.581-18.368-2.581-21.936a6.661,6.661,0,0,1,4.5-1.565,18,18,0,0,1,13.834,9.505c5.908,9.213,8.233,13.161,18.024,29.774l.4.68C164.571,66.264,180.95,88.3,184.109,88.3a.439.439,0,0,0,.344-.146,2.983,2.983,0,0,0,2.464-1.111c2-2.618.271-9.388-1.565-16.554-.307-1.192-.614-2.391-.9-3.576-.834-3.407-1.323-5.213-1.762-6.807-.848-3.108-1.521-5.564-4.153-17.87a28.319,28.319,0,0,1-.044-19.1,6.793,6.793,0,0,1,4.84-2.779,4.153,4.153,0,0,1,.775-.073c4.826,0,9.747,7.78,12.525,19.823,3.181,13.768,5.564,22.528,5.586,22.608l5.63,18.821c0,.051,2.04,5.265,4.27,10.237a69.082,69.082,0,0,0,5.477,9.674c9.7,13.227,18.009,23.676,18.09,23.778l12.562,17.2,20.217,31.441-2.874,2.471c-30.805,26.381-46.957,40.128-48,40.866a.775.775,0,0,1-.424.088,41.589,41.589,0,0,1-9.345-2.866l2.786-6.464,3.51-9.725c.08-.256,2-6.332,4.643-13.724a33.391,33.391,0,0,1,2.406-4.833c1.382-2.194,2.925-4.387,2.969-4.5l6.047-7.37c.117-.139,2.991-3.466,7.59-8.387,5.009-5.374,5.784-9.25,4.336-10.712a3.305,3.305,0,0,0-2.406-1.192c-1.806,0-4.329,1.7-7.7,5.206-4.248,4.387-5.053,5.345-6.069,6.53-.526.607-1.119,1.294-2.252,2.552l-1.214,1.353c-2.34,2.625-4.548,5.118-6.135,5.118a1.411,1.411,0,0,1-1.2-.695.227.227,0,0,1-.168-.124,72.505,72.505,0,0,1,7.312-21.709l.292-.614c3.846-8.043,4.884-10.237,6.939-15.048a9.506,9.506,0,0,0,.4-7.612,3.459,3.459,0,0,0-2.194-1.93,3.233,3.233,0,0,0-.812-.1c-2.289,0-4.745,2.384-7.312,7.085-2.866,5.265-5.645,11.078-5.674,11.136s-4.321,8.416-5.967,12.467c0,0-.088.168-.212.431-2.194,4.7-3.919,7.085-5.023,7.085H202.7c-1.872-.329-2.457-1.894-1.214-10.749a127.309,127.309,0,0,1,2.742-13.417c.79-3.232,1.682-6.888,2.647-11.655,1.674-8.27,2.194-12.306.775-14.339a4.036,4.036,0,0,0-2.925-1.557,5.281,5.281,0,0,0-.834-.066c-4.058,0-5.637,5.572-8.255,14.807-1.652,5.85-2.515,10.237-3.349,14.551-.629,3.225-1.221,6.274-2.106,9.7-1.462,5.762-2.552,6.625-3.049,6.625a.372.372,0,0,0-.475-.044c-.417,0-1.462-.665-2.194-6.807-.563-4.782-.731-9.045-.885-13.98-.11-3.21-.234-6.844-.5-11.063-.409-6.7-2.194-9.952-5.491-9.952a8.547,8.547,0,0,0-1.93.263c-2.786.658-3.656,2.442-3.861,12.343-.139,7.758.037,12.321.263,18.09v.037c.059,1.462.117,3.027.175,4.738A122.533,122.533,0,0,1,169,169.793a6.822,6.822,0,0,1-4.943,3.225,4.929,4.929,0,0,1-2.866-1.009,53.625,53.625,0,0,1-5.55-4.387c-1.243-1.1-2.925-2.6-5.9-5.074a6.632,6.632,0,0,0-4.387-1.645,9.4,9.4,0,0,0-6.639,3.254,7.714,7.714,0,0,0-1.28,7.531c.8,2.347,3.48,6.508,12.43,7.963h.1c15.45,0,17.826,15.7,18.148,18.85a45.165,45.165,0,0,0-9.505-1.068,33.167,33.167,0,0,0-28.794,16.013A33.84,33.84,0,0,1,106.6,226.132Z" transform="translate(78.813 59.669)" fill="#fff"/>
      </g>
    </g>
  </g>
</svg>
